{
  "accessors": [
    {
      "bufferView": 2,
      "componentType": 5126,
      "count": 26338,
      "max": [
        1.2751200199127197,
        2.908129930496216,
        0.9336699843406677
      ],
      "min": [
        -1.2751200199127197,
        -3.7500200271606445,
        -0.59552001953125
      ],
      "type": "VEC3"
    },
    {
      "bufferView": 2,
      "byteOffset": 316056,
      "componentType": 5126,
      "count": 26338,
      "max": [
        1.0,
        1.0,
        1.0
      ],
      "min": [
        -1.0,
        -1.0,
        -1.0
      ],
      "type": "VEC3"
    },
    {
      "bufferView": 1,
      "componentType": 5126,
      "count": 26338,
      "max": [
        0.9970200061798096,
        0.9880499839782715
      ],
      "min": [
        0.0,
        0.0
      ],
      "type": "VEC2"
    },
    {
      "bufferView": 0,
      "componentType": 5125,
      "count": 136686,
      "type": "SCALAR"
    },
    {
      "bufferView": 2,
      "byteOffset": 632112,
      "componentType": 5126,
      "count": 2213,
      "max": [
        0.5531299710273743,
        1.0,
        2.388159990310669
      ],
      "min": [
        -0.5016700029373169,
        -1.0,
        -2.388159990310669
      ],
      "type": "VEC3"
    },
    {
      "bufferView": 2,
      "byteOffset": 658668,
      "componentType": 5126,
      "count": 2213,
      "max": [
        1.0,
        1.0,
        1.0
      ],
      "min": [
        -1.0,
        -1.0,
        -1.0
      ],
      "type": "VEC3"
    },
    {
      "bufferView": 1,
      "byteOffset": 210704,
      "componentType": 5126,
      "count": 2213,
      "max": [
        0.9852700233459473,
        0.9774199724197388
      ],
      "min": [
        0.01080000028014183,
        0.011420000344514847
      ],
      "type": "VEC2"
    },
    {
      "bufferView": 0,
      "byteOffset": 546744,
      "componentType": 5125,
      "count": 6954,
      "type": "SCALAR"
    },
    {
      "bufferView": 2,
      "byteOffset": 685224,
      "componentType": 5126,
      "count": 2213,
      "max": [
        0.5531299710273743,
        1.0,
        2.388159990310669
      ],
      "min": [
        -0.5016700029373169,
        -1.0,
        -2.388159990310669
      ],
      "type": "VEC3"
    },
    {
      "bufferView": 2,
      "byteOffset": 711780,
      "componentType": 5126,
      "count": 2213,
      "max": [
        1.0,
        1.0,
        1.0
      ],
      "min": [
        -1.0,
        -1.0,
        -1.0
      ],
      "type": "VEC3"
    },
    {
      "bufferView": 1,
      "byteOffset": 228408,
      "componentType": 5126,
      "count": 2213,
      "max": [
        0.9852700233459473,
        0.9774199724197388
      ],
      "min": [
        0.01080000028014183,
        0.011420000344514847
      ],
      "type": "VEC2"
    },
    {
      "bufferView": 0,
      "byteOffset": 574560,
      "componentType": 5125,
      "count": 6954,
      "type": "SCALAR"
    },
    {
      "bufferView": 2,
      "byteOffset": 738336,
      "componentType": 5126,
      "count": 2213,
      "max": [
        0.5016700029373169,
        1.0,
        2.388159990310669
      ],
      "min": [
        -0.5531299710273743,
        -1.0,
        -2.388159990310669
      ],
      "type": "VEC3"
    },
    {
      "bufferView": 2,
      "byteOffset": 764892,
      "componentType": 5126,
      "count": 2213,
      "max": [
        1.0,
        1.0,
        1.0
      ],
      "min": [
        -1.0,
        -1.0,
        -1.0
      ],
      "type": "VEC3"
    },
    {
      "bufferView": 1,
      "byteOffset": 246112,
      "componentType": 5126,
      "count": 2213,
      "max": [
        0.9852700233459473,
        0.9774199724197388
      ],
      "min": [
        0.01080000028014183,
        0.011420000344514847
      ],
      "type": "VEC2"
    },
    {
      "bufferView": 0,
      "byteOffset": 602376,
      "componentType": 5125,
      "count": 6954,
      "type": "SCALAR"
    },
    {
      "bufferView": 2,
      "byteOffset": 791448,
      "componentType": 5126,
      "count": 2213,
      "max": [
        0.5016700029373169,
        1.0,
        2.388159990310669
      ],
      "min": [
        -0.5531299710273743,
        -1.0,
        -2.388159990310669
      ],
      "type": "VEC3"
    },
    {
      "bufferView": 2,
      "byteOffset": 818004,
      "componentType": 5126,
      "count": 2213,
      "max": [
        1.0,
        1.0,
        1.0
      ],
      "min": [
        -1.0,
        -1.0,
        -1.0
      ],
      "type": "VEC3"
    },
    {
      "bufferView": 1,
      "byteOffset": 263816,
      "componentType": 5126,
      "count": 2213,
      "max": [
        0.9852700233459473,
        0.9774199724197388
      ],
      "min": [
        0.01080000028014183,
        0.011420000344514847
      ],
      "type": "VEC2"
    },
    {
      "bufferView": 0,
      "byteOffset": 630192,
      "componentType": 5125,
      "count": 6954,
      "type": "SCALAR"
    }
  ],
  "asset": {
    "extras": {
      "author": "SamiArt3D (https://sketchfab.com/samichakkour330)",
      "license": "CC-BY-4.0 (http://creativecommons.org/licenses/by/4.0/)",
      "source": "https://sketchfab.com/3d-models/simple-muscle-car-79e12785ba114d82af09171934262a09",
      "title": "Simple Muscle Car"
    },
    "generator": "Sketchfab-12.66.0",
    "version": "2.0"
  },
  "bufferViews": [
    {
      "buffer": 0,
      "byteLength": 658008,
      "name": "floatBufferViews",
      "target": 34963
    },
    {
      "buffer": 0,
      "byteLength": 281520,
      "byteOffset": 658008,
      "byteStride": 8,
      "name": "floatBufferViews",
      "target": 34962
    },
    {
      "buffer": 0,
      "byteLength": 844560,
      "byteOffset": 939528,
      "byteStride": 12,
      "name": "floatBufferViews",
      "target": 34962
    }
  ],
  "buffers": [
    {
      "byteLength": 1784088,
      "uri": "scene.bin"
    }
  ],
  "extensionsRequired": [
    "KHR_materials_pbrSpecularGlossiness"
  ],
  "extensionsUsed": [
    "KHR_materials_pbrSpecularGlossiness"
  ],
  "images": [
    {
      "uri": "textures/Material.001_diffuse.png"
    },
    {
      "uri": "textures/Material_diffuse.png"
    }
  ],
  "materials": [
    {
      "doubleSided": true,
      "extensions": {
        "KHR_materials_pbrSpecularGlossiness": {
          "diffuseFactor": [
            1.0,
            1.0,
            1.0,
            1.0
          ],
          "diffuseTexture": {
            "index": 0
          },
          "glossinessFactor": 1.0,
          "specularFactor": [
            0.001714939024390244,
            0.001714939024390244,
            0.001714939024390244
          ]
        }
      },
      "name": "Material.001"
    },
    {
      "doubleSided": true,
      "extensions": {
        "KHR_materials_pbrSpecularGlossiness": {
          "diffuseFactor": [
            1.0,
            1.0,
            1.0,
            1.0
          ],
          "diffuseTexture": {
            "index": 1
          },
          "glossinessFactor": 1.0,
          "specularFactor": [
            0.0078125,
            0.0078125,
            0.0078125
          ]
        }
      },
      "name": "Material"
    }
  ],
  "meshes": [
    {
      "name": "Plane_0",
      "primitives": [
        {
          "attributes": {
            "NORMAL": 1,
            "POSITION": 0,
            "TEXCOORD_0": 2
          },
          "indices": 3,
          "material": 1,
          "mode": 4
        }
      ]
    },
    {
      "name": "FR_0",
      "primitives": [
        {
          "attributes": {
            "NORMAL": 5,
            "POSITION": 4,
            "TEXCOORD_0": 6
          },
          "indices": 7,
          "material": 0,
          "mode": 4
        }
      ]
    },
    {
      "name": "BR_0",
      "primitives": [
        {
          "attributes": {
            "NORMAL": 9,
            "POSITION": 8,
            "TEXCOORD_0": 10
          },
          "indices": 11,
          "material": 0,
          "mode": 4
        }
      ]
    },
    {
      "name": "FL_0",
      "primitives": [
        {
          "attributes": {
            "NORMAL": 13,
            "POSITION": 12,
            "TEXCOORD_0": 14
          },
          "indices": 15,
          "material": 0,
          "mode": 4
        }
      ]
    },
    {
      "name": "BL_0",
      "primitives": [
        {
          "attributes": {
            "NORMAL": 17,
            "POSITION": 16,
            "TEXCOORD_0": 18
          },
          "indices": 19,
          "material": 0,
          "mode": 4
        }
      ]
    }
  ],
  "nodes": [
    {
      "children": [
        1
      ],
      "matrix": [
        1.0,
        0.0,
        0.0,
        0.0,
        0.0,
        2.220446049250313e-16,
        -1.0,
        0.0,
        0.0,
        1.0,
        2.220446049250313e-16,
        0.0,
        0.0,
        0.0,
        0.0,
        1.0
      ],
      "name": "Sketchfab_model"
    },
    {
      "children": [
        2,
        4,
        6,
        8,
        10
      ],
      "name": "Root"
    },
    {
      "children": [
        3
      ],
      "matrix": [
        1.0,
        0.0,
        0.0,
        0.0,
        0.0,
        1.0,
        0.0,
        0.0,
        0.0,
        0.0,
        1.0,
        0.0,
        0.0,
        0.3809100000000001,
        0.0,
        1.0
      ],
      "name": "Plane"
    },
    {
      "mesh": 0,
      "name": "Plane_0"
    },
    {
      "children": [
        5
      ],
      "matrix": [
        0.4415200000000001,
        0.0,
        0.0,
        0.0,
        0.0,
        0.4415200000000001,
        0.0,
        0.0,
        0.0,
        0.0,
        0.18488000000000002,
        0.0,
        1.01055,
        -2.0584499999999997,
        -0.48677000000000004,
        1.0
      ],
      "name": "FR"
    },
    {
      "mesh": 1,
      "name": "FR_0"
    },
    {
      "children": [
        7
      ],
      "matrix": [
        0.4415200000000001,
        0.0,
        0.0,
        0.0,
        0.0,
        0.4415200000000001,
        0.0,
        0.0,
        0.0,
        0.0,
        0.18488000000000002,
        0.0,
        1.01055,
        1.6709,
        -0.45688000000000006,
        1.0
      ],
      "name": "BR"
    },
    {
      "mesh": 2,
      "name": "BR_0"
    },
    {
      "children": [
        9
      ],
      "matrix": [
        0.4415200000000001,
        0.0,
        0.0,
        0.0,
        0.0,
        0.4415200000000001,
        0.0,
        0.0,
        0.0,
        0.0,
        0.18488000000000002,
        0.0,
        -1.00297,
        -2.0584499999999997,
        -0.48677000000000004,
        1.0
      ],
      "name": "FL"
    },
    {
      "mesh": 3,
      "name": "FL_0"
    },
    {
      "children": [
        11
      ],
      "matrix": [
        0.4415200000000001,
        0.0,
        0.0,
        0.0,
        0.0,
        0.4415200000000001,
        0.0,
        0.0,
        0.0,
        0.0,
        0.18488000000000002,
        0.0,
        -1.00297,
        1.6709,
        -0.48677000000000004,
        1.0
      ],
      "name": "BL"
    },
    {
      "mesh": 4,
      "name": "BL_0"
    }
  ],
  "samplers": [
    {
      "magFilter": 9729,
      "minFilter": 9987,
      "wrapS": 10497,
      "wrapT": 10497
    }
  ],
  "scene": 0,
  "scenes": [
    {
      "name": "Sketchfab_Scene",
      "nodes": [
        0
      ]
    }
  ],
  "textures": [
    {
      "sampler": 0,
      "source": 0
    },
    {
      "sampler": 0,
      "source": 1
    }
  ]
}
